#define _width 20
#define _height 20
static unsigned char _bits[] = {
   0x00, 0x00, 0x00, 0x00, 0x00, 0x00, 0x80, 0x1f, 0x00, 0xe0, 0x3f, 0x00,
   0x30, 0xe0, 0x00, 0x38, 0xc0, 0x00, 0x08, 0x80, 0x01, 0x0c, 0x00, 0x03,
   0x0c, 0x00, 0x03, 0x06, 0x00, 0x06, 0x0e, 0x00, 0x07, 0x0c, 0x00, 0x05,
   0x0c, 0x80, 0x03, 0x18, 0xc0, 0x02, 0x30, 0xe0, 0x01, 0xf0, 0xb0, 0x00,
   0xc0, 0x7e, 0x00, 0x00, 0x17, 0x00, 0x00, 0x00, 0x00, 0x00, 0x00, 0x00 };
