#define _width 20
#define _height 20
static unsigned char _bits[] = {
   0xff, 0xff, 0x0f, 0x01, 0x00, 0x08, 0x01, 0x00, 0x08, 0x01, 0x00, 0x08,
   0x01, 0x78, 0x08, 0x01, 0x8c, 0x08, 0x01, 0x06, 0x09, 0x01, 0x43, 0x09,
   0x81, 0x24, 0x09, 0x81, 0x8b, 0x08, 0xc1, 0x76, 0x08, 0x61, 0x14, 0x08,
   0x31, 0x0e, 0x08, 0x19, 0x03, 0x08, 0x8d, 0x01, 0x08, 0xc5, 0x00, 0x08,
   0x6d, 0x00, 0x08, 0x3d, 0x00, 0x08, 0x01, 0x00, 0x08, 0xff, 0xff, 0x0f };
