#define _width 20
#define _height 20
static unsigned char _bits[] = {
   0x00, 0x00, 0x00, 0x00, 0x00, 0x00, 0x20, 0x00, 0x00, 0x70, 0x00, 0x00,
   0xf8, 0x00, 0x00, 0xfc, 0x01, 0x00, 0xbc, 0x03, 0x00, 0x78, 0x07, 0x00,
   0xb0, 0x0c, 0x00, 0xe0, 0x18, 0x00, 0x80, 0x31, 0x00, 0x00, 0x63, 0x00,
   0x00, 0xc6, 0x00, 0x00, 0x8c, 0x01, 0x00, 0xd8, 0x01, 0x00, 0xf0, 0x01,
   0x00, 0xe0, 0x01, 0x00, 0x00, 0x00, 0x00, 0x00, 0x00, 0x00, 0x00, 0x00 };
