#define _width 20
#define _height 20
static unsigned char _bits[] = {
   0x00, 0x00, 0x00, 0x00, 0x00, 0x00, 0x04, 0x00, 0x00, 0x08, 0x00, 0x00,
   0x38, 0x00, 0x00, 0x20, 0x00, 0x00, 0xe0, 0x00, 0x00, 0x80, 0x00, 0x00,
   0x80, 0x03, 0x00, 0x00, 0x02, 0x00, 0x00, 0x0e, 0x00, 0x00, 0x08, 0x00,
   0x00, 0x38, 0x00, 0x00, 0x20, 0x00, 0x00, 0xe0, 0x00, 0x00, 0x80, 0x00,
   0x00, 0x80, 0x01, 0x00, 0x00, 0x02, 0x00, 0x00, 0x00, 0x00, 0x00, 0x00 };
