#define _width 12
#define _height 24
static unsigned char _bits[] = {
   0x02, 0x00, 0x05, 0x00, 0x0a, 0x00, 0x17, 0x00, 0x2a, 0x00, 0x5c, 0x00,
   0xa8, 0x00, 0x71, 0x01, 0xa2, 0x02, 0xc5, 0x05, 0x82, 0x0a, 0x05, 0x07,
   0x0a, 0x0a, 0x05, 0x0d, 0x82, 0x0a, 0x43, 0x07, 0xa2, 0x02, 0xd0, 0x01,
   0xa8, 0x00, 0x74, 0x00, 0x2a, 0x00, 0x1d, 0x00, 0x0a, 0x00, 0x07, 0x00 };
