#define _width 20
#define _height 20
static unsigned char _bits[] = {
   0x00, 0x00, 0x00, 0x00, 0x00, 0x01, 0x00, 0x80, 0x02, 0x00, 0x40, 0x01,
   0x00, 0xa1, 0x02, 0x80, 0x53, 0x01, 0x80, 0xae, 0x02, 0x80, 0x52, 0x01,
   0x80, 0xa2, 0x02, 0xe0, 0x4f, 0x01, 0x20, 0x88, 0x02, 0x20, 0x08, 0x01,
   0x20, 0x08, 0x00, 0x20, 0x0c, 0x00, 0x20, 0x0c, 0x00, 0x20, 0x0e, 0x00,
   0x20, 0x0e, 0x00, 0xe0, 0x0f, 0x00, 0x00, 0x00, 0x00, 0x00, 0x00, 0x00 };
