#define _width 20
#define _height 20
static unsigned char _bits[] = {
   0x00, 0x00, 0x00, 0x00, 0x00, 0x00, 0x20, 0x20, 0x00, 0x30, 0x60, 0x00,
   0x78, 0xf7, 0x00, 0xe0, 0x3f, 0x00, 0xc0, 0x1f, 0x00, 0xe0, 0x3f, 0x00,
   0x70, 0x77, 0x00, 0xf0, 0x7f, 0x00, 0xf0, 0x7d, 0x00, 0xf0, 0x7d, 0x00,
   0xe0, 0x3f, 0x00, 0xe0, 0x3f, 0x00, 0x70, 0x77, 0x00, 0xb8, 0xed, 0x00,
   0x9e, 0xc8, 0x03, 0x8c, 0x8f, 0x01, 0x08, 0x87, 0x00, 0x00, 0x00, 0x00 };
