#define _width 20
#define _height 20
static unsigned char _bits[] = {
   0xff, 0xff, 0x0f, 0xff, 0xff, 0x0f, 0xff, 0xff, 0x0f, 0x65, 0xce, 0x0f,
   0x65, 0xce, 0x0f, 0x65, 0xce, 0x0f, 0x65, 0xce, 0x0f, 0x65, 0xce, 0x0f,
   0x65, 0xce, 0x0f, 0x65, 0xce, 0x0f, 0x65, 0xce, 0x0f, 0x65, 0xce, 0x0f,
   0x65, 0xce, 0x0f, 0x65, 0xce, 0x0f, 0x65, 0xce, 0x0f, 0x65, 0xce, 0x0f,
   0x65, 0xce, 0x0f, 0xff, 0xff, 0x0f, 0xff, 0xff, 0x0f, 0xff, 0xff, 0x0f };
