#define _width 20
#define _height 20
static unsigned char _bits[] = {
   0x00, 0x00, 0x00, 0x00, 0x00, 0x00, 0x00, 0x00, 0x00, 0x00, 0x06, 0x00,
   0x00, 0x06, 0x00, 0x00, 0x0f, 0x00, 0x00, 0x0d, 0x00, 0x80, 0x1c, 0x00,
   0x80, 0x18, 0x00, 0xc0, 0x38, 0x00, 0xc0, 0x3f, 0x00, 0xe0, 0x30, 0x00,
   0x60, 0x70, 0x00, 0x60, 0x60, 0x00, 0x70, 0xe0, 0x00, 0xf8, 0xf0, 0x01,
   0x00, 0x00, 0x00, 0x00, 0x00, 0x00, 0x00, 0x00, 0x00, 0x00, 0x00, 0x00 };
