#define _width 20
#define _height 20
static unsigned char _bits[] = {
   0x00, 0x00, 0x00, 0x00, 0x01, 0x00, 0x80, 0x03, 0x00, 0xc0, 0x02, 0x00,
   0xc0, 0x02, 0x00, 0xc0, 0x06, 0x00, 0xc0, 0x1c, 0x00, 0xc0, 0x74, 0x00,
   0xd8, 0x54, 0x00, 0xfc, 0x50, 0x00, 0x0c, 0x80, 0x00, 0x1c, 0x80, 0x00,
   0x38, 0x80, 0x00, 0x70, 0x80, 0x00, 0xe0, 0x80, 0x00, 0xc0, 0x60, 0x00,
   0x80, 0x21, 0x00, 0x00, 0x1f, 0x00, 0x00, 0x00, 0x00, 0x00, 0x00, 0x00 };
