#define _width 12
#define _height 24
static unsigned char _bits[] = {
   0x00, 0x04, 0x00, 0x0a, 0x00, 0x05, 0x80, 0x0e, 0x40, 0x05, 0xa0, 0x03,
   0x50, 0x01, 0xe8, 0x08, 0x54, 0x04, 0x3a, 0x0a, 0x15, 0x04, 0x0e, 0x0a,
   0x05, 0x05, 0x0b, 0x0a, 0x15, 0x04, 0x2e, 0x0c, 0x54, 0x04, 0xb8, 0x00,
   0x50, 0x01, 0xe0, 0x02, 0x40, 0x05, 0x80, 0x0b, 0x00, 0x05, 0x00, 0x0e };
